<svg width="98" height="26" fill="none" xmlns="http://www.w3.org/2000/svg"><mask id="a" maskUnits="userSpaceOnUse" x="0" y="4" width="69" height="22"><path d="M0 25.299h68.6V4.646H0V25.3z" fill="#fff"/></mask><g mask="url(#a)"><path fill-rule="evenodd" clip-rule="evenodd" d="M68.6 9.293v-4.13H56.737v19.62H68.6v-4.13h-7.736V17.04h5.674v-4.131h-5.674V9.293h7.737-.001zM9.284 8.777a4.776 4.776 0 00-4.144 2.396 7.552 7.552 0 00-1.014 3.8 7.56 7.56 0 001.014 3.8 4.776 4.776 0 004.144 2.396 7.179 7.179 0 004.346-1.456l2.368 3.385a11.292 11.292 0 01-6.714 2.2 8.904 8.904 0 01-7.716-4.457A11.69 11.69 0 010 14.972c0-2.137.57-4.141 1.568-5.867a8.904 8.904 0 017.716-4.459c2.262 0 4.37.663 6.14 1.805L13.3 9.996a7.182 7.182 0 00-4.015-1.219zm36.259 16.005h-3.095l-3.869-12.963v12.964h-4.126V5.163h6.448l3.094 10.37 3.096-10.37h6.447v19.62h-4.126V11.819l-3.868 12.964-.001-.001zM24.483 8.769l-1.936 7.753h3.872L24.483 8.77zm-4 16.014H16.23l4.901-19.62h6.706l4.9 19.62h-4.254l-1.032-4.13h-5.935l-1.03 4.129-.002.001z" fill="#fff"/></g><path fill-rule="evenodd" clip-rule="evenodd" d="M83.558 2.065A2.065 2.065 0 0187.08.605c.387.388.604.913.604 1.46a2.065 2.065 0 11-4.126 0zm5.158 22.718h4.126V15.49h-4.126v9.293zm-5.158-5.163h4.126v-9.294h-4.126v9.294zm5.158-10.326H98v-4.13h-9.284v4.13zm-10.316 0h9.284v-4.13H78.4v4.13z" fill="#00B0ED"/></svg>