<svg width="13" height="11" fill="none" xmlns="http://www.w3.org/2000/svg"><path d="M.323 9.25h2.262v1.5c0 .073.03.133.091.18.06.046.138.07.232.07h1.687a.373.373 0 00.227-.07.213.213 0 00.096-.18v-1.5h5.1a.368.368 0 00.232-.07.217.217 0 00.09-.18V8a.217.217 0 00-.09-.18.368.368 0 00-.233-.07h-5.1v-.922h3.434c1.346 0 2.445-.317 3.297-.953.852-.635 1.278-1.455 1.278-2.461 0-1.005-.426-1.825-1.278-2.46C10.797.317 9.698 0 8.351 0H2.908a.37.37 0 00-.232.07.218.218 0 00-.09.18v4.914H.322a.356.356 0 00-.232.074.221.221 0 00-.091.176v1.164c0 .073.03.133.09.18.062.047.139.07.233.07h2.262v.922H.323a.368.368 0 00-.232.07A.217.217 0 000 8v1c0 .073.03.133.09.18.062.047.139.07.233.07zm4.595-7.586h3.231c.714 0 1.29.162 1.727.485.437.322.656.744.656 1.265 0 .521-.219.943-.656 1.266-.438.323-1.013.484-1.727.484H4.918v-3.5z" fill="#000"/></svg>