<svg width="17" height="14" fill="none" xmlns="http://www.w3.org/2000/svg"><path d="M.411 11.773h2.88v1.909c0 .093.038.169.115.228.077.06.176.09.296.09h2.146c.111 0 .208-.03.29-.09a.272.272 0 00.121-.228v-1.91h6.49c.12 0 .219-.029.296-.089a.277.277 0 00.116-.229v-1.272a.276.276 0 00-.116-.229.468.468 0 00-.296-.09H6.26V8.69h4.37c1.713 0 3.112-.404 4.196-1.213 1.084-.808 1.626-1.852 1.626-3.132 0-1.279-.542-2.323-1.626-3.132C13.74.405 12.342 0 10.629 0H3.702a.47.47 0 00-.296.09.278.278 0 00-.116.228v6.255H.411a.452.452 0 00-.295.094A.282.282 0 000 6.89v1.481c0 .093.038.169.116.229.077.06.175.09.295.09h2.88v1.172H.41c-.12 0-.218.03-.295.09a.277.277 0 00-.116.229v1.272c0 .093.038.17.116.23a.47.47 0 00.295.089zM6.26 2.118h4.113c.908 0 1.64.206 2.197.617.557.41.836.948.836 1.61 0 .663-.279 1.2-.836 1.611-.557.411-1.29.617-2.197.617H6.259V2.118z" fill="#fff"/></svg>