<svg width="23" height="12" fill="none" xmlns="http://www.w3.org/2000/svg"><path d="M5.58 11.24c-.747 0-1.413-.127-2-.38A4.015 4.015 0 012.1 9.78a5.063 5.063 0 01-.92-1.72C.967 7.38.86 6.627.86 5.8c0-.827.107-1.573.32-2.24.213-.68.52-1.253.92-1.72.4-.48.893-.847 1.48-1.1.587-.253 1.253-.38 2-.38 1.04 0 1.893.233 2.56.7A4.033 4.033 0 019.6 2.92l-1.8.84a2.175 2.175 0 00-.78-1.14c-.36-.293-.84-.44-1.44-.44-.8 0-1.407.253-1.82.76-.4.493-.6 1.14-.6 1.94v1.86c0 .8.2 1.453.6 1.96.413.493 1.02.74 1.82.74.64 0 1.147-.153 1.52-.46.387-.32.693-.74.92-1.26l1.66.88c-.347.853-.867 1.507-1.56 1.96-.693.453-1.54.68-2.54.68zM11.755.6h2.64l2.94 4.92h.04L20.315.6h2.52V11h-2.14V3.28h-.08l-.68 1.28-2.64 4.4-2.64-4.4-.68-1.28h-.08V11h-2.14V.6z" fill="#000"/></svg>