<svg width="40" height="41" fill="none" xmlns="http://www.w3.org/2000/svg"><path d="M23.81 0h-7.62C8.21 0 1.718 6.653 1.718 14.831v7.035c0 6.09 3.65 11.563 9.14 13.793v4.56c0 .31.178.589.454.714a.74.74 0 00.82-.135l4.417-4.1h7.26c7.98 0 14.473-6.654 14.473-14.832v-7.035C38.282 6.653 31.788 0 23.809 0zm12.948 21.866c0 7.317-5.808 13.27-12.949 13.27h-7.554a.75.75 0 00-.511.202l-3.362 3.12v-3.34a.778.778 0 00-.508-.736c-5.163-1.871-8.633-6.901-8.633-12.516v-7.035c0-7.317 5.81-13.27 12.95-13.27h7.618c7.14 0 12.949 5.953 12.949 13.27v7.035z" fill="#fff"/><path d="M30.067 23.809l-4.682-3.117a2.235 2.235 0 00-1.718-.33c-.597.129-1.11.49-1.443 1.017l-.22.347c-2.027-.686-4.26-1.563-5.598-5.532l.553-.493c.951-.848 1.05-2.33.224-3.306l-3.662-4.318A.75.75 0 0012.446 8l-2.3 2.048c-2.017 1.798-1.074 4.456-.764 5.33.013.04.03.077.05.113.08.147 1.99 3.64 5.074 6.86 3.096 3.234 8.687 6.22 8.858 6.306a3.72 3.72 0 002.068.628 3.79 3.79 0 003.2-1.776l1.66-2.619a.795.795 0 00-.225-1.081zm-2.713 2.85c-.686 1.083-2.104 1.39-3.224.65-.056-.03-5.61-2.994-8.537-6.05-2.736-2.858-4.553-6.032-4.8-6.474-.604-1.734-.497-2.8.353-3.558l1.725-1.536 3.163 3.729a.786.786 0 01-.073 1.102l-.935.832a.792.792 0 00-.228.819c1.593 5.308 4.692 6.35 6.954 7.111l.33.112a.75.75 0 00.88-.315l.54-.852a.753.753 0 01.48-.34.738.738 0 01.574.113l4.043 2.69-1.245 1.966zm-5.615-13.974a.758.758 0 00-.942.537.783.783 0 00.524.964c1.135.331 2.04 1.26 2.36 2.424a.765.765 0 00.94.54.784.784 0 00.526-.963c-.462-1.682-1.769-3.024-3.408-3.502z" fill="#fff"/><path d="M27.535 17.348a.79.79 0 00.208-.029.784.784 0 00.526-.963c-.899-3.266-3.435-5.871-6.619-6.8a.758.758 0 00-.94.538.783.783 0 00.523.964c2.68.78 4.813 2.974 5.57 5.722.095.343.4.568.732.568z" fill="#fff"/><path d="M21.322 5.92a.758.758 0 00-.942.537.783.783 0 00.524.964c4.54 1.324 8.156 5.039 9.437 9.695a.765.765 0 00.94.54.784.784 0 00.526-.963c-1.423-5.175-5.44-9.302-10.485-10.774z" fill="#fff"/></svg>