<svg width="21" height="22" fill="none" xmlns="http://www.w3.org/2000/svg"><g clip-path="url(#clip0)" fill="#000"><path d="M12.308 0H8.37C4.244 0 .888 3.44.888 7.667v3.637c0 3.148 1.888 5.977 4.726 7.13v2.357c0 .16.091.305.234.37a.383.383 0 00.424-.07l2.283-2.12h3.753c4.126 0 7.482-3.44 7.482-7.667V7.667C19.79 3.439 16.434 0 12.308 0zm6.694 11.304c0 3.782-3.002 6.86-6.694 6.86H8.403a.388.388 0 00-.264.104L6.4 19.88v-1.727a.402.402 0 00-.263-.38c-2.669-.968-4.462-3.568-4.462-6.47V7.667c0-3.782 3.003-6.86 6.694-6.86h3.938c3.692 0 6.694 3.078 6.694 6.86v3.637z"/><path d="M15.543 12.308l-2.42-1.612a1.155 1.155 0 00-.888-.17 1.171 1.171 0 00-.746.526l-.114.179c-1.048-.355-2.203-.808-2.894-2.86l.286-.255a1.234 1.234 0 00.116-1.709L6.99 4.175a.388.388 0 00-.556-.04L5.245 5.194c-1.043.93-.555 2.304-.395 2.755a.44.44 0 00.026.059 18.426 18.426 0 002.623 3.546c1.6 1.671 4.49 3.215 4.58 3.26.33.22.7.325 1.068.325a1.96 1.96 0 001.655-.919l.857-1.353a.41.41 0 00-.116-.56zm-1.402 1.472c-.355.56-1.088.72-1.667.337-.029-.015-2.9-1.548-4.413-3.128a17.997 17.997 0 01-2.482-3.347c-.312-.896-.257-1.447.183-1.839l.892-.794 1.635 1.928a.406.406 0 01-.038.57l-.483.43a.41.41 0 00-.118.423c.823 2.744 2.425 3.283 3.595 3.676l.17.058a.388.388 0 00.455-.163l.28-.44a.39.39 0 01.247-.176.382.382 0 01.297.058l2.09 1.392-.643 1.015zm-2.903-7.222a.392.392 0 00-.487.277.405.405 0 00.271.499 1.805 1.805 0 011.22 1.253.396.396 0 00.486.28.405.405 0 00.272-.499 2.608 2.608 0 00-1.762-1.81z"/><path d="M14.235 8.968a.393.393 0 00.107-.015.405.405 0 00.272-.498c-.465-1.689-1.776-3.035-3.422-3.515a.392.392 0 00-.486.278.405.405 0 00.271.498c1.385.404 2.488 1.538 2.879 2.958.05.178.207.294.379.294z"/><path d="M11.023 3.06a.392.392 0 00-.487.279.405.405 0 00.271.498c2.347.684 4.216 2.605 4.878 5.012a.396.396 0 00.486.28.405.405 0 00.272-.499c-.736-2.675-2.813-4.808-5.42-5.57z"/></g><defs><clipPath id="clip0"><path fill="#fff" d="M0 0h20.678v21.195H0z"/></clipPath></defs></svg>