<svg width="40" height="40" fill="none" xmlns="http://www.w3.org/2000/svg"><path d="M20 0C8.972 0 0 8.972 0 20a19.92 19.92 0 003.028 10.586C2.238 33.354.812 38.59.796 38.644c-.074.27.006.56.208.755a.773.773 0 00.76.182l7.928-2.439A19.95 19.95 0 0020 40c11.029 0 20-8.971 20-20C40 8.972 31.029 0 20 0zm0 38.462c-3.476 0-6.862-.972-9.793-2.809a.769.769 0 00-.635-.083L2.65 37.7a762.004 762.004 0 011.952-7.022.772.772 0 00-.094-.632A18.39 18.39 0 011.538 20C1.538 9.82 9.821 1.538 20 1.538c10.18 0 18.462 8.283 18.462 18.462 0 10.18-8.283 18.462-18.462 18.462z" fill="#fff"/><path d="M33.065 24.712c-1.42-.788-2.629-1.58-3.511-2.156-.674-.44-1.161-.758-1.518-.937-.998-.498-1.754-.146-2.041.145a.766.766 0 00-.097.117c-1.036 1.554-2.389 3.041-2.785 3.121-.458-.071-2.6-1.29-4.73-3.062-2.173-1.812-3.54-3.546-3.741-4.728 1.394-1.435 1.896-2.338 1.896-3.366 0-1.06-2.47-5.482-2.917-5.928-.449-.448-1.459-.518-3.003-.21a.777.777 0 00-.393.21c-.187.186-4.56 4.646-2.482 10.05 2.282 5.932 8.138 12.826 15.604 13.947.848.126 1.644.19 2.388.19 4.393 0 6.985-2.21 7.715-6.594a.766.766 0 00-.385-.799zm-9.49 5.68C15.68 29.21 10.707 21.388 9.18 17.417c-1.515-3.939 1.28-7.45 1.98-8.244.572-.097 1.172-.138 1.423-.098.524.728 2.338 4.155 2.418 4.772 0 .404-.132.966-1.698 2.533a.766.766 0 00-.225.544c0 4.028 8.495 9.615 10 9.615 1.308 0 3.014-2.199 3.986-3.632.056.002.15.021.285.09.277.139.757.452 1.364.849a61.2 61.2 0 003.123 1.94c-.57 2.746-2.166 5.523-8.26 4.608z" fill="#fff"/></svg>