<svg width="21" height="21" fill="none" xmlns="http://www.w3.org/2000/svg"><g clip-path="url(#clip0)" fill="#000"><path d="M10.66 0C4.96 0 .323 4.638.323 10.339c0 1.945.54 3.833 1.565 5.473-.408 1.43-1.146 4.137-1.154 4.165a.396.396 0 00.501.484l4.098-1.26a10.314 10.314 0 005.329 1.477C16.36 20.678 21 16.04 21 10.339 21 4.638 16.362 0 10.66 0zm0 19.883a9.52 9.52 0 01-5.062-1.452.398.398 0 00-.328-.043l-3.578 1.101c.263-.96.735-2.675 1.009-3.63a.4.4 0 00-.049-.327 9.506 9.506 0 01-1.535-5.193C1.117 5.077 5.4.795 10.661.795c5.262 0 9.543 4.282 9.543 9.544 0 5.262-4.281 9.544-9.543 9.544z"/><path d="M17.415 12.775a28.2 28.2 0 01-1.815-1.114c-.349-.228-.6-.392-.785-.485-.516-.257-.907-.075-1.055.075a.4.4 0 00-.05.06c-.536.804-1.235 1.573-1.44 1.614-.236-.037-1.344-.666-2.445-1.583-1.123-.936-1.83-1.833-1.934-2.444.72-.742.98-1.209.98-1.74 0-.547-1.277-2.834-1.508-3.065-.232-.231-.754-.267-1.552-.108a.402.402 0 00-.203.108C5.51 4.19 3.25 6.495 4.325 9.29c1.179 3.066 4.206 6.63 8.066 7.21.439.065.85.098 1.235.098 2.27 0 3.61-1.143 3.988-3.409a.396.396 0 00-.2-.413zm-4.906 2.937c-4.081-.612-6.652-4.656-7.442-6.708-.783-2.036.661-3.852 1.024-4.262.295-.05.606-.071.735-.05.271.376 1.209 2.147 1.25 2.466 0 .209-.068.5-.878 1.31a.396.396 0 00-.116.28c0 2.083 4.392 4.971 5.17 4.971.676 0 1.558-1.136 2.06-1.877.03 0 .078.01.148.046.143.072.39.234.705.439.414.27.964.63 1.614 1.003-.295 1.42-1.12 2.855-4.27 2.382z"/></g><defs><clipPath id="clip0"><path fill="#fff" transform="translate(.322)" d="M0 0h20.678v20.678H0z"/></clipPath></defs></svg>