<svg width="108" height="93" fill="none" xmlns="http://www.w3.org/2000/svg"><g clip-path="url(#clip0)" fill="#00B0ED"><path d="M97.65 4.75H22.075A10.37 10.37 0 0011.75 15.125v.125h-1.4c-5.7 0-10.325 4.6-10.35 10.3v57.325c.025 5.7 4.625 10.35 10.35 10.375h75.575A10.37 10.37 0 0096.25 82.875v-.125h1.4c5.7 0 10.325-4.6 10.35-10.3V15.125c-.025-5.725-4.625-10.35-10.35-10.375zm-11.725 83.5H10.35C7.4 88.225 5.025 85.825 5 82.875V25.55a5.346 5.346 0 015.35-5.3h75.575c2.925 0 5.325 2.35 5.325 5.3v14.3c-.45.1-.9.15-1.325.15H75.5c-7.85 0-14.225 6.375-14.225 14.225S67.65 68.45 75.5 68.475h14.4c.45-.025.9-.075 1.325-.125l.025 14.525c0 2.95-2.375 5.35-5.325 5.375zM103 72.45a5.346 5.346 0 01-5.35 5.3h-1.4v-11.2a13.663 13.663 0 002.875-2.625l3.875-5V72.45zM95.175 60.9c-1.25 1.625-3.2 2.575-5.25 2.6H75.5c-5.1-.025-9.225-4.15-9.225-9.25S70.4 45.025 75.5 45h14.4c1.725 0 3.425-.375 4.975-1.125 1.65-.775 3.1-1.95 4.225-3.4l3.875-5L103 50.75 95.175 60.9zM103 27.3L96.25 36V25.55c0-5.7-4.625-10.3-10.325-10.3H16.75v-.125c0-2.95 2.375-5.35 5.325-5.375H97.65c2.95.025 5.325 2.425 5.35 5.375V27.3z"/><path d="M81.1 51.75h-6a2.507 2.507 0 00-2.5 2.5c0 1.375 1.125 2.5 2.5 2.5h6c1.375 0 2.5-1.125 2.5-2.5s-1.125-2.5-2.5-2.5z"/></g><defs><clipPath id="clip0"><path fill="#fff" d="M0 0h108v93H0z"/></clipPath></defs></svg>