<svg width="68" height="112" fill="none" xmlns="http://www.w3.org/2000/svg"><path d="M62.334 37.942L46.933 18.468a16.58 16.58 0 00-10.58-6.086V2.341A2.348 2.348 0 0034.013 0a2.348 2.348 0 00-2.341 2.34v10.042a16.274 16.274 0 00-10.557 6.086L5.667 37.965a9.753 9.753 0 00-2.083 5.992v58.493c.023 5.29 4.33 9.573 9.62 9.55h41.547c5.29.046 9.62-4.214 9.666-9.503v-58.54c0-2.177-.749-4.283-2.083-6.015zm-28.322-2.739a6.803 6.803 0 016.812 6.811 6.803 6.803 0 01-6.812 6.812 6.803 6.803 0 01-6.811-6.812c0-3.745 3.043-6.81 6.811-6.81zM59.76 102.45c0 2.738-2.247 4.868-4.985 4.868H13.25c-2.739 0-4.986-2.13-4.986-4.868V43.957c0-1.123.375-2.223 1.077-3.09L24.767 21.37c1.732-2.177 4.166-3.698 6.905-4.236v13.622c-6.227 1.287-10.206 7.373-8.918 13.6 1.287 6.225 7.373 10.204 13.599 8.917 6.226-1.287 10.205-7.373 8.918-13.6a11.513 11.513 0 00-8.918-8.917V17.134c.96.187 1.896.514 2.785.936a11.672 11.672 0 014.096 3.3l15.449 19.474a5.026 5.026 0 011.076 3.113v58.493z" fill="#00B0ED"/><path d="M41.479 85.364a7.84 7.84 0 00-7.467-5.477 3.137 3.137 0 113.137-3.137 2.348 2.348 0 002.34 2.34 2.348 2.348 0 002.34-2.34 7.84 7.84 0 00-5.476-7.466v-1.03a2.348 2.348 0 00-2.34-2.34 2.348 2.348 0 00-2.341 2.34v1.03c-4.12 1.287-6.414 5.687-5.127 9.807a7.84 7.84 0 007.467 5.477 3.137 3.137 0 11-3.136 3.136 2.348 2.348 0 00-2.34-2.34 2.348 2.348 0 00-2.342 2.34 7.84 7.84 0 005.478 7.467v1.17a2.348 2.348 0 002.34 2.341 2.348 2.348 0 002.34-2.34v-1.17c4.12-1.288 6.414-5.689 5.127-9.808z" fill="#00B0ED"/></svg>