<svg width="105" height="105" fill="none" xmlns="http://www.w3.org/2000/svg"><g clip-path="url(#clip0)"><path d="M96.407 28.645a2 2 0 00.725-.483l7.223-7.223c.856-.835.856-2.218.022-3.074l-.022-.022-9.177-9.155a2.134 2.134 0 00-1.559-.593 2.1 2.1 0 00-1.558.615l-7.224 7.201c-.22.22-.417.505-.505.812l-2.37 6.675-20.418 20.417-3.754-3.754a2.242 2.242 0 00-.835-.527l-2.722-2.722 3.271-3.271a2.186 2.186 0 000-3.096l-.11-.11c7.158-6.806 13.59-9.835 20.638-9.77a2.216 2.216 0 002.217-2.173c0-.834-.461-1.603-1.207-1.976a36.806 36.806 0 00-5.335-2.283c-10.648-3.513-21.999-2.81-30.67 1.866l-1.01-1.01a2.186 2.186 0 00-3.096 0L16.669 37.185a2.186 2.186 0 000 3.096l2.459 2.458-4.37 4.37-2.458-2.46a2.186 2.186 0 00-3.096 0L.642 53.212a2.186 2.186 0 000 3.095L16.12 71.785c.856.856 2.24.856 3.096 0l8.562-8.562a2.186 2.186 0 000-3.096l-2.459-2.459 4.369-4.368 2.459 2.458c.856.857 2.24.857 3.095 0l3.272-3.27 2.766 2.765-.088.066-.33.264-23.93 23.93a2.186 2.186 0 000 3.096l13.502 13.568a2.25 2.25 0 001.56.614 2.169 2.169 0 001.558-.593l23.974-23.974c.11-.088.198-.197.264-.307l.066-.088 21.8 21.8c4.325 4.348 11.35 4.37 15.698.067 4.347-4.325 4.369-11.35.066-15.698l-.066-.066L79.59 62.191l-6.015-6.016c-.088-.373-.308-.724-.571-1.01l-3.49-3.446 20.439-20.44 6.454-2.634zm-40.154 16.07l3.776 3.754 4.83 4.809 3.49 3.446-2.59 2.591L54.672 48.14l-.922-.922 2.503-2.503zm13.194-27.267c-6.235 1.976-11.218 5.927-15.192 9.77l-7.992-7.97c6.697-3.205 15.04-3.842 23.184-1.8zM49.096 48.733l.768.768-4.852 3.272-3.38-3.381 9.483-9.485 1.867 1.866-3.886 3.864a2.186 2.186 0 000 3.096zm-31.44 18.42L5.276 54.77l5.466-5.466 2.46 2.459 7.442 7.464 2.459 2.46-5.445 5.466zm4.567-12.58l-4.347-4.347 4.37-4.37 4.346 4.348-4.369 4.369zm11.483-3.469l-2.46-2.459-7.442-7.464-2.459-2.46 19.1-19.1 12.383 12.36-19.122 19.123zm21.998 16.049l-1.45 2.13-22.26 22.283-10.407-10.494 22.24-22.218 9.177-6.17 7.42 7.465-4.72 7.004zm36.532 13.875a6.698 6.698 0 01.022 9.484c-2.612 2.613-6.872 2.635-9.484.022l-.022-.022-14.205-14.204 9.485-9.485 14.204 14.205zM71.248 60.039l3.688 3.689-9.484 9.484-5.094-5.093 3.206-4.786.636.592c.417.396.966.615 1.56.615a2.169 2.169 0 001.558-.593l3.93-3.908zm15.895-32.185l-20.77 20.77-1.712-1.713 20.747-20.77c.242-.24.417-.504.527-.811l2.371-6.675 5.313-5.335 6.038 6.038-5.335 5.379-6.455 2.634c-.263.11-.505.264-.724.483z" fill="#00B0ED"/></g><defs><clipPath id="clip0"><path fill="#fff" d="M0 0h105v105H0z"/></clipPath></defs></svg>